<mxfile host="app.diagrams.net" modified="2023-10-15T21:51:58.185Z" agent="Mozilla/5.0 (Windows NT 10.0; Win64; x64) AppleWebKit/537.36 (KHTML, like Gecko) Chrome/118.0.0.0 Safari/537.36" etag="V-mHDO05utZh4HL2C_fu" version="21.7.4" type="github">
  <diagram name="PÃ¡gina-1" id="aRL9cCxFrS6CaJdTYWoo">
    <mxGraphModel dx="2200" dy="1305" grid="1" gridSize="10" guides="1" tooltips="1" connect="1" arrows="1" fold="1" page="1" pageScale="1" pageWidth="1100" pageHeight="850" math="0" shadow="0">
      <root>
        <mxCell id="0" />
        <mxCell id="1" parent="0" />
        <mxCell id="kQ5PTKvCTX1AFU9Y6s-Q-8" style="edgeStyle=orthogonalEdgeStyle;rounded=0;orthogonalLoop=1;jettySize=auto;html=1;exitX=0.5;exitY=0;exitDx=0;exitDy=0;entryX=0.45;entryY=1.02;entryDx=0;entryDy=0;entryPerimeter=0;endArrow=none;endFill=0;" edge="1" parent="1" source="kQ5PTKvCTX1AFU9Y6s-Q-1" target="kQ5PTKvCTX1AFU9Y6s-Q-2">
          <mxGeometry relative="1" as="geometry" />
        </mxCell>
        <mxCell id="kQ5PTKvCTX1AFU9Y6s-Q-9" style="edgeStyle=orthogonalEdgeStyle;shape=connector;rounded=0;orthogonalLoop=1;jettySize=auto;html=1;exitX=0.25;exitY=0;exitDx=0;exitDy=0;entryX=1;entryY=0.5;entryDx=0;entryDy=0;labelBackgroundColor=default;strokeColor=default;fontFamily=Helvetica;fontSize=11;fontColor=default;endArrow=none;endFill=0;" edge="1" parent="1" source="kQ5PTKvCTX1AFU9Y6s-Q-1" target="kQ5PTKvCTX1AFU9Y6s-Q-6">
          <mxGeometry relative="1" as="geometry">
            <Array as="points">
              <mxPoint x="230" y="75" />
            </Array>
          </mxGeometry>
        </mxCell>
        <mxCell id="kQ5PTKvCTX1AFU9Y6s-Q-10" style="edgeStyle=orthogonalEdgeStyle;shape=connector;rounded=0;orthogonalLoop=1;jettySize=auto;html=1;exitX=0;exitY=0.25;exitDx=0;exitDy=0;entryX=1;entryY=0.5;entryDx=0;entryDy=0;labelBackgroundColor=default;strokeColor=default;fontFamily=Helvetica;fontSize=11;fontColor=default;endArrow=none;endFill=0;" edge="1" parent="1" source="kQ5PTKvCTX1AFU9Y6s-Q-1" target="kQ5PTKvCTX1AFU9Y6s-Q-5">
          <mxGeometry relative="1" as="geometry" />
        </mxCell>
        <mxCell id="kQ5PTKvCTX1AFU9Y6s-Q-11" style="edgeStyle=orthogonalEdgeStyle;shape=connector;rounded=0;orthogonalLoop=1;jettySize=auto;html=1;exitX=0.25;exitY=1;exitDx=0;exitDy=0;entryX=1;entryY=0.5;entryDx=0;entryDy=0;labelBackgroundColor=default;strokeColor=default;fontFamily=Helvetica;fontSize=11;fontColor=default;endArrow=none;endFill=0;" edge="1" parent="1" source="kQ5PTKvCTX1AFU9Y6s-Q-1" target="kQ5PTKvCTX1AFU9Y6s-Q-3">
          <mxGeometry relative="1" as="geometry" />
        </mxCell>
        <mxCell id="kQ5PTKvCTX1AFU9Y6s-Q-57" style="edgeStyle=orthogonalEdgeStyle;shape=connector;rounded=0;orthogonalLoop=1;jettySize=auto;html=1;exitX=1;exitY=0.5;exitDx=0;exitDy=0;entryX=0;entryY=0.5;entryDx=0;entryDy=0;labelBackgroundColor=default;strokeColor=default;fontFamily=Helvetica;fontSize=11;fontColor=default;endArrow=none;endFill=0;" edge="1" parent="1" source="kQ5PTKvCTX1AFU9Y6s-Q-1" target="kQ5PTKvCTX1AFU9Y6s-Q-55">
          <mxGeometry relative="1" as="geometry" />
        </mxCell>
        <mxCell id="kQ5PTKvCTX1AFU9Y6s-Q-1" value="PROGRAMA" style="whiteSpace=wrap;html=1;" vertex="1" parent="1">
          <mxGeometry x="200" y="130" width="120" height="60" as="geometry" />
        </mxCell>
        <mxCell id="kQ5PTKvCTX1AFU9Y6s-Q-2" value="&lt;u&gt;codigo&lt;/u&gt;" style="ellipse;whiteSpace=wrap;html=1;" vertex="1" parent="1">
          <mxGeometry x="205" y="5" width="120" height="50" as="geometry" />
        </mxCell>
        <mxCell id="kQ5PTKvCTX1AFU9Y6s-Q-3" value="nombre" style="ellipse;whiteSpace=wrap;html=1;" vertex="1" parent="1">
          <mxGeometry x="60" y="200" width="110" height="40" as="geometry" />
        </mxCell>
        <mxCell id="kQ5PTKvCTX1AFU9Y6s-Q-5" value="duracion&amp;nbsp;" style="ellipse;whiteSpace=wrap;html=1;" vertex="1" parent="1">
          <mxGeometry x="30" y="126" width="110" height="40" as="geometry" />
        </mxCell>
        <mxCell id="kQ5PTKvCTX1AFU9Y6s-Q-6" value="jornada" style="ellipse;whiteSpace=wrap;html=1;" vertex="1" parent="1">
          <mxGeometry x="70" y="55" width="110" height="40" as="geometry" />
        </mxCell>
        <mxCell id="kQ5PTKvCTX1AFU9Y6s-Q-17" style="edgeStyle=orthogonalEdgeStyle;shape=connector;rounded=0;orthogonalLoop=1;jettySize=auto;html=1;exitX=0.5;exitY=0;exitDx=0;exitDy=0;entryX=0.5;entryY=1;entryDx=0;entryDy=0;labelBackgroundColor=default;strokeColor=default;fontFamily=Helvetica;fontSize=11;fontColor=default;endArrow=none;endFill=0;" edge="1" parent="1" source="kQ5PTKvCTX1AFU9Y6s-Q-12" target="kQ5PTKvCTX1AFU9Y6s-Q-14">
          <mxGeometry relative="1" as="geometry" />
        </mxCell>
        <mxCell id="kQ5PTKvCTX1AFU9Y6s-Q-18" style="edgeStyle=orthogonalEdgeStyle;shape=connector;rounded=0;orthogonalLoop=1;jettySize=auto;html=1;exitX=1;exitY=0;exitDx=0;exitDy=0;entryX=0.5;entryY=1;entryDx=0;entryDy=0;labelBackgroundColor=default;strokeColor=default;fontFamily=Helvetica;fontSize=11;fontColor=default;endArrow=none;endFill=0;" edge="1" parent="1" source="kQ5PTKvCTX1AFU9Y6s-Q-12" target="kQ5PTKvCTX1AFU9Y6s-Q-13">
          <mxGeometry relative="1" as="geometry" />
        </mxCell>
        <mxCell id="kQ5PTKvCTX1AFU9Y6s-Q-19" style="edgeStyle=orthogonalEdgeStyle;shape=connector;rounded=0;orthogonalLoop=1;jettySize=auto;html=1;exitX=1;exitY=0.25;exitDx=0;exitDy=0;entryX=0;entryY=0.5;entryDx=0;entryDy=0;labelBackgroundColor=default;strokeColor=default;fontFamily=Helvetica;fontSize=11;fontColor=default;endArrow=none;endFill=0;" edge="1" parent="1" source="kQ5PTKvCTX1AFU9Y6s-Q-12" target="kQ5PTKvCTX1AFU9Y6s-Q-15">
          <mxGeometry relative="1" as="geometry" />
        </mxCell>
        <mxCell id="kQ5PTKvCTX1AFU9Y6s-Q-56" style="edgeStyle=orthogonalEdgeStyle;shape=connector;rounded=0;orthogonalLoop=1;jettySize=auto;html=1;exitX=0;exitY=0.5;exitDx=0;exitDy=0;entryX=1;entryY=0.5;entryDx=0;entryDy=0;labelBackgroundColor=default;strokeColor=default;fontFamily=Helvetica;fontSize=11;fontColor=default;endArrow=none;endFill=0;" edge="1" parent="1" source="kQ5PTKvCTX1AFU9Y6s-Q-12" target="kQ5PTKvCTX1AFU9Y6s-Q-55">
          <mxGeometry relative="1" as="geometry" />
        </mxCell>
        <mxCell id="kQ5PTKvCTX1AFU9Y6s-Q-12" value="ESTUDIANTE" style="whiteSpace=wrap;html=1;fontFamily=Helvetica;fontSize=11;fontColor=default;" vertex="1" parent="1">
          <mxGeometry x="651" y="130" width="120" height="60" as="geometry" />
        </mxCell>
        <mxCell id="kQ5PTKvCTX1AFU9Y6s-Q-13" value="id" style="ellipse;whiteSpace=wrap;html=1;" vertex="1" parent="1">
          <mxGeometry x="781" y="50" width="110" height="40" as="geometry" />
        </mxCell>
        <mxCell id="kQ5PTKvCTX1AFU9Y6s-Q-14" value="&lt;u&gt;codigo&lt;/u&gt;" style="ellipse;whiteSpace=wrap;html=1;" vertex="1" parent="1">
          <mxGeometry x="656" y="30" width="110" height="40" as="geometry" />
        </mxCell>
        <mxCell id="kQ5PTKvCTX1AFU9Y6s-Q-15" value="nombre" style="ellipse;whiteSpace=wrap;html=1;" vertex="1" parent="1">
          <mxGeometry x="841" y="126" width="110" height="40" as="geometry" />
        </mxCell>
        <mxCell id="kQ5PTKvCTX1AFU9Y6s-Q-26" style="edgeStyle=orthogonalEdgeStyle;shape=connector;rounded=0;orthogonalLoop=1;jettySize=auto;html=1;exitX=0.25;exitY=0;exitDx=0;exitDy=0;entryX=0.5;entryY=1;entryDx=0;entryDy=0;labelBackgroundColor=default;strokeColor=default;fontFamily=Helvetica;fontSize=11;fontColor=default;endArrow=none;endFill=0;" edge="1" parent="1" source="kQ5PTKvCTX1AFU9Y6s-Q-20" target="kQ5PTKvCTX1AFU9Y6s-Q-21">
          <mxGeometry relative="1" as="geometry" />
        </mxCell>
        <mxCell id="kQ5PTKvCTX1AFU9Y6s-Q-27" style="edgeStyle=orthogonalEdgeStyle;shape=connector;rounded=0;orthogonalLoop=1;jettySize=auto;html=1;exitX=0.996;exitY=0.368;exitDx=0;exitDy=0;entryX=-0.009;entryY=0.5;entryDx=0;entryDy=0;entryPerimeter=0;labelBackgroundColor=default;strokeColor=default;fontFamily=Helvetica;fontSize=11;fontColor=default;endArrow=none;endFill=0;exitPerimeter=0;" edge="1" parent="1" source="kQ5PTKvCTX1AFU9Y6s-Q-20" target="kQ5PTKvCTX1AFU9Y6s-Q-22">
          <mxGeometry relative="1" as="geometry">
            <Array as="points">
              <mxPoint x="930" y="392" />
              <mxPoint x="930" y="380" />
            </Array>
          </mxGeometry>
        </mxCell>
        <mxCell id="kQ5PTKvCTX1AFU9Y6s-Q-28" style="edgeStyle=orthogonalEdgeStyle;shape=connector;rounded=0;orthogonalLoop=1;jettySize=auto;html=1;entryX=0;entryY=0.5;entryDx=0;entryDy=0;labelBackgroundColor=default;strokeColor=default;fontFamily=Helvetica;fontSize=11;fontColor=default;endArrow=none;endFill=0;" edge="1" parent="1" target="kQ5PTKvCTX1AFU9Y6s-Q-24">
          <mxGeometry relative="1" as="geometry">
            <mxPoint x="890" y="400" as="sourcePoint" />
            <Array as="points">
              <mxPoint x="890" y="410" />
              <mxPoint x="930" y="410" />
              <mxPoint x="930" y="433" />
            </Array>
          </mxGeometry>
        </mxCell>
        <mxCell id="kQ5PTKvCTX1AFU9Y6s-Q-33" style="edgeStyle=orthogonalEdgeStyle;shape=connector;rounded=0;orthogonalLoop=1;jettySize=auto;html=1;exitX=0.5;exitY=1;exitDx=0;exitDy=0;entryX=0.5;entryY=0;entryDx=0;entryDy=0;labelBackgroundColor=default;strokeColor=default;fontFamily=Helvetica;fontSize=11;fontColor=default;endArrow=none;endFill=0;" edge="1" parent="1" source="kQ5PTKvCTX1AFU9Y6s-Q-20" target="kQ5PTKvCTX1AFU9Y6s-Q-32">
          <mxGeometry relative="1" as="geometry" />
        </mxCell>
        <mxCell id="kQ5PTKvCTX1AFU9Y6s-Q-59" style="edgeStyle=orthogonalEdgeStyle;shape=connector;rounded=0;orthogonalLoop=1;jettySize=auto;html=1;exitX=0;exitY=0.25;exitDx=0;exitDy=0;entryX=0.5;entryY=1;entryDx=0;entryDy=0;labelBackgroundColor=default;strokeColor=default;fontFamily=Helvetica;fontSize=11;fontColor=default;endArrow=none;endFill=0;" edge="1" parent="1" source="kQ5PTKvCTX1AFU9Y6s-Q-20" target="kQ5PTKvCTX1AFU9Y6s-Q-58">
          <mxGeometry relative="1" as="geometry" />
        </mxCell>
        <mxCell id="kQ5PTKvCTX1AFU9Y6s-Q-62" style="edgeStyle=orthogonalEdgeStyle;shape=connector;rounded=0;orthogonalLoop=1;jettySize=auto;html=1;exitX=0;exitY=0.5;exitDx=0;exitDy=0;entryX=1;entryY=0.5;entryDx=0;entryDy=0;labelBackgroundColor=default;strokeColor=default;fontFamily=Helvetica;fontSize=11;fontColor=default;endArrow=none;endFill=0;" edge="1" parent="1" source="kQ5PTKvCTX1AFU9Y6s-Q-20" target="kQ5PTKvCTX1AFU9Y6s-Q-61">
          <mxGeometry relative="1" as="geometry">
            <Array as="points">
              <mxPoint x="560" y="400" />
              <mxPoint x="560" y="433" />
            </Array>
          </mxGeometry>
        </mxCell>
        <mxCell id="kQ5PTKvCTX1AFU9Y6s-Q-20" value="T.G" style="whiteSpace=wrap;html=1;fontFamily=Helvetica;fontSize=11;fontColor=default;" vertex="1" parent="1">
          <mxGeometry x="770" y="370" width="120" height="60" as="geometry" />
        </mxCell>
        <mxCell id="kQ5PTKvCTX1AFU9Y6s-Q-21" value="titulo" style="ellipse;whiteSpace=wrap;html=1;" vertex="1" parent="1">
          <mxGeometry x="770" y="300" width="110" height="40" as="geometry" />
        </mxCell>
        <mxCell id="kQ5PTKvCTX1AFU9Y6s-Q-22" value="fecha inicio" style="ellipse;whiteSpace=wrap;html=1;" vertex="1" parent="1">
          <mxGeometry x="960" y="354" width="110" height="40" as="geometry" />
        </mxCell>
        <mxCell id="kQ5PTKvCTX1AFU9Y6s-Q-24" value="&lt;u&gt;codigo&lt;/u&gt;" style="ellipse;whiteSpace=wrap;html=1;" vertex="1" parent="1">
          <mxGeometry x="960" y="413" width="110" height="40" as="geometry" />
        </mxCell>
        <mxCell id="kQ5PTKvCTX1AFU9Y6s-Q-36" style="edgeStyle=orthogonalEdgeStyle;shape=connector;rounded=0;orthogonalLoop=1;jettySize=auto;html=1;exitX=0.25;exitY=0;exitDx=0;exitDy=0;entryX=1;entryY=0.5;entryDx=0;entryDy=0;labelBackgroundColor=default;strokeColor=default;fontFamily=Helvetica;fontSize=11;fontColor=default;endArrow=none;endFill=0;" edge="1" parent="1" source="kQ5PTKvCTX1AFU9Y6s-Q-29" target="kQ5PTKvCTX1AFU9Y6s-Q-32">
          <mxGeometry relative="1" as="geometry" />
        </mxCell>
        <mxCell id="kQ5PTKvCTX1AFU9Y6s-Q-29" value="TESIS" style="whiteSpace=wrap;html=1;fontFamily=Helvetica;fontSize=11;fontColor=default;" vertex="1" parent="1">
          <mxGeometry x="940" y="500" width="120" height="60" as="geometry" />
        </mxCell>
        <mxCell id="kQ5PTKvCTX1AFU9Y6s-Q-35" style="edgeStyle=orthogonalEdgeStyle;shape=connector;rounded=0;orthogonalLoop=1;jettySize=auto;html=1;exitX=0.5;exitY=0;exitDx=0;exitDy=0;entryX=0.5;entryY=1;entryDx=0;entryDy=0;labelBackgroundColor=default;strokeColor=default;fontFamily=Helvetica;fontSize=11;fontColor=default;endArrow=none;endFill=0;" edge="1" parent="1" source="kQ5PTKvCTX1AFU9Y6s-Q-30" target="kQ5PTKvCTX1AFU9Y6s-Q-32">
          <mxGeometry relative="1" as="geometry" />
        </mxCell>
        <mxCell id="kQ5PTKvCTX1AFU9Y6s-Q-42" style="edgeStyle=orthogonalEdgeStyle;shape=connector;rounded=0;orthogonalLoop=1;jettySize=auto;html=1;exitX=0.697;exitY=1.013;exitDx=0;exitDy=0;labelBackgroundColor=default;strokeColor=default;fontFamily=Helvetica;fontSize=11;fontColor=default;endArrow=none;endFill=0;exitPerimeter=0;entryX=0;entryY=0.5;entryDx=0;entryDy=0;" edge="1" parent="1" source="kQ5PTKvCTX1AFU9Y6s-Q-30" target="kQ5PTKvCTX1AFU9Y6s-Q-38">
          <mxGeometry relative="1" as="geometry">
            <mxPoint x="830.0000000000001" y="610.89" as="sourcePoint" />
            <mxPoint x="876.2" y="649.99" as="targetPoint" />
            <Array as="points">
              <mxPoint x="850" y="633" />
              <mxPoint x="850" y="633" />
              <mxPoint x="850" y="670" />
            </Array>
          </mxGeometry>
        </mxCell>
        <mxCell id="kQ5PTKvCTX1AFU9Y6s-Q-43" style="edgeStyle=orthogonalEdgeStyle;shape=connector;rounded=0;orthogonalLoop=1;jettySize=auto;html=1;exitX=0.25;exitY=1;exitDx=0;exitDy=0;labelBackgroundColor=default;strokeColor=default;fontFamily=Helvetica;fontSize=11;fontColor=default;endArrow=none;endFill=0;" edge="1" parent="1" target="kQ5PTKvCTX1AFU9Y6s-Q-39">
          <mxGeometry relative="1" as="geometry">
            <mxPoint x="822" y="630" as="sourcePoint" />
            <Array as="points">
              <mxPoint x="821" y="700" />
              <mxPoint x="786" y="700" />
            </Array>
          </mxGeometry>
        </mxCell>
        <mxCell id="kQ5PTKvCTX1AFU9Y6s-Q-44" style="edgeStyle=orthogonalEdgeStyle;shape=connector;rounded=0;orthogonalLoop=1;jettySize=auto;html=1;exitX=0.248;exitY=1.017;exitDx=0;exitDy=0;entryX=1;entryY=0.5;entryDx=0;entryDy=0;labelBackgroundColor=default;strokeColor=default;fontFamily=Helvetica;fontSize=11;fontColor=default;endArrow=none;endFill=0;exitPerimeter=0;" edge="1" parent="1" source="kQ5PTKvCTX1AFU9Y6s-Q-30" target="kQ5PTKvCTX1AFU9Y6s-Q-37">
          <mxGeometry relative="1" as="geometry">
            <Array as="points">
              <mxPoint x="796" y="634" />
              <mxPoint x="796" y="634" />
              <mxPoint x="796" y="670" />
            </Array>
          </mxGeometry>
        </mxCell>
        <mxCell id="kQ5PTKvCTX1AFU9Y6s-Q-87" style="edgeStyle=orthogonalEdgeStyle;shape=connector;rounded=0;orthogonalLoop=1;jettySize=auto;html=1;labelBackgroundColor=default;strokeColor=default;fontFamily=Helvetica;fontSize=11;fontColor=default;endArrow=none;endFill=0;exitX=0.855;exitY=0.99;exitDx=0;exitDy=0;exitPerimeter=0;" edge="1" parent="1" source="kQ5PTKvCTX1AFU9Y6s-Q-30" target="kQ5PTKvCTX1AFU9Y6s-Q-40">
          <mxGeometry relative="1" as="geometry">
            <mxPoint x="910" y="630" as="targetPoint" />
            <Array as="points">
              <mxPoint x="869" y="619" />
            </Array>
          </mxGeometry>
        </mxCell>
        <mxCell id="kQ5PTKvCTX1AFU9Y6s-Q-30" value="PASANTIA" style="whiteSpace=wrap;html=1;fontFamily=Helvetica;fontSize=11;fontColor=default;" vertex="1" parent="1">
          <mxGeometry x="766" y="570" width="120" height="60" as="geometry" />
        </mxCell>
        <mxCell id="kQ5PTKvCTX1AFU9Y6s-Q-46" style="edgeStyle=orthogonalEdgeStyle;shape=connector;rounded=0;orthogonalLoop=1;jettySize=auto;html=1;exitX=0.5;exitY=1;exitDx=0;exitDy=0;entryX=0.5;entryY=0;entryDx=0;entryDy=0;labelBackgroundColor=default;strokeColor=default;fontFamily=Helvetica;fontSize=11;fontColor=default;endArrow=none;endFill=0;" edge="1" parent="1" source="kQ5PTKvCTX1AFU9Y6s-Q-31" target="kQ5PTKvCTX1AFU9Y6s-Q-45">
          <mxGeometry relative="1" as="geometry" />
        </mxCell>
        <mxCell id="kQ5PTKvCTX1AFU9Y6s-Q-31" value="PROFUNDIZACION" style="whiteSpace=wrap;html=1;fontFamily=Helvetica;fontSize=11;fontColor=default;" vertex="1" parent="1">
          <mxGeometry x="610" y="500" width="120" height="60" as="geometry" />
        </mxCell>
        <mxCell id="kQ5PTKvCTX1AFU9Y6s-Q-34" style="edgeStyle=orthogonalEdgeStyle;shape=connector;rounded=0;orthogonalLoop=1;jettySize=auto;html=1;exitX=0;exitY=0.5;exitDx=0;exitDy=0;entryX=0.5;entryY=0;entryDx=0;entryDy=0;labelBackgroundColor=default;strokeColor=default;fontFamily=Helvetica;fontSize=11;fontColor=default;endArrow=none;endFill=0;" edge="1" parent="1" source="kQ5PTKvCTX1AFU9Y6s-Q-32" target="kQ5PTKvCTX1AFU9Y6s-Q-31">
          <mxGeometry relative="1" as="geometry" />
        </mxCell>
        <mxCell id="kQ5PTKvCTX1AFU9Y6s-Q-32" value="" style="ellipse;whiteSpace=wrap;html=1;fontFamily=Helvetica;fontSize=11;fontColor=default;" vertex="1" parent="1">
          <mxGeometry x="815" y="460" width="20" height="20" as="geometry" />
        </mxCell>
        <mxCell id="kQ5PTKvCTX1AFU9Y6s-Q-37" value="NIT" style="ellipse;whiteSpace=wrap;html=1;" vertex="1" parent="1">
          <mxGeometry x="671" y="650" width="110" height="40" as="geometry" />
        </mxCell>
        <mxCell id="kQ5PTKvCTX1AFU9Y6s-Q-38" value="nom emp" style="ellipse;whiteSpace=wrap;html=1;" vertex="1" parent="1">
          <mxGeometry x="886" y="650" width="110" height="40" as="geometry" />
        </mxCell>
        <mxCell id="kQ5PTKvCTX1AFU9Y6s-Q-39" value="nom cont" style="ellipse;whiteSpace=wrap;html=1;" vertex="1" parent="1">
          <mxGeometry x="766" y="690" width="110" height="40" as="geometry" />
        </mxCell>
        <mxCell id="kQ5PTKvCTX1AFU9Y6s-Q-40" value="tel_cont" style="ellipse;whiteSpace=wrap;html=1;" vertex="1" parent="1">
          <mxGeometry x="940" y="600" width="110" height="40" as="geometry" />
        </mxCell>
        <mxCell id="kQ5PTKvCTX1AFU9Y6s-Q-45" value="nombre asig" style="ellipse;whiteSpace=wrap;html=1;" vertex="1" parent="1">
          <mxGeometry x="615" y="589" width="110" height="40" as="geometry" />
        </mxCell>
        <mxCell id="kQ5PTKvCTX1AFU9Y6s-Q-65" style="edgeStyle=orthogonalEdgeStyle;shape=connector;rounded=0;orthogonalLoop=1;jettySize=auto;html=1;entryX=0;entryY=0.5;entryDx=0;entryDy=0;labelBackgroundColor=default;strokeColor=default;fontFamily=Helvetica;fontSize=11;fontColor=default;endArrow=none;endFill=0;exitX=1;exitY=0.75;exitDx=0;exitDy=0;" edge="1" parent="1" source="kQ5PTKvCTX1AFU9Y6s-Q-47" target="kQ5PTKvCTX1AFU9Y6s-Q-64">
          <mxGeometry relative="1" as="geometry">
            <mxPoint x="320" y="530" as="sourcePoint" />
          </mxGeometry>
        </mxCell>
        <mxCell id="kQ5PTKvCTX1AFU9Y6s-Q-77" style="edgeStyle=orthogonalEdgeStyle;shape=connector;rounded=0;orthogonalLoop=1;jettySize=auto;html=1;exitX=0.75;exitY=0;exitDx=0;exitDy=0;entryX=0;entryY=0.5;entryDx=0;entryDy=0;labelBackgroundColor=default;strokeColor=default;fontFamily=Helvetica;fontSize=11;fontColor=default;endArrow=none;endFill=0;" edge="1" parent="1" source="kQ5PTKvCTX1AFU9Y6s-Q-47" target="kQ5PTKvCTX1AFU9Y6s-Q-74">
          <mxGeometry relative="1" as="geometry" />
        </mxCell>
        <mxCell id="kQ5PTKvCTX1AFU9Y6s-Q-47" value="PROFESOR" style="whiteSpace=wrap;html=1;fontFamily=Helvetica;fontSize=11;fontColor=default;" vertex="1" parent="1">
          <mxGeometry x="200" y="500" width="120" height="60" as="geometry" />
        </mxCell>
        <mxCell id="kQ5PTKvCTX1AFU9Y6s-Q-54" style="edgeStyle=orthogonalEdgeStyle;shape=connector;rounded=0;orthogonalLoop=1;jettySize=auto;html=1;exitX=0.5;exitY=0;exitDx=0;exitDy=0;entryX=0;entryY=0.75;entryDx=0;entryDy=0;labelBackgroundColor=default;strokeColor=default;fontFamily=Helvetica;fontSize=11;fontColor=default;endArrow=none;endFill=0;" edge="1" parent="1" source="kQ5PTKvCTX1AFU9Y6s-Q-48" target="kQ5PTKvCTX1AFU9Y6s-Q-47">
          <mxGeometry relative="1" as="geometry">
            <Array as="points">
              <mxPoint x="145" y="545" />
            </Array>
          </mxGeometry>
        </mxCell>
        <mxCell id="kQ5PTKvCTX1AFU9Y6s-Q-48" value="&lt;u&gt;DOC ID&lt;/u&gt;" style="ellipse;whiteSpace=wrap;html=1;" vertex="1" parent="1">
          <mxGeometry x="90" y="560" width="110" height="40" as="geometry" />
        </mxCell>
        <mxCell id="kQ5PTKvCTX1AFU9Y6s-Q-53" style="edgeStyle=orthogonalEdgeStyle;shape=connector;rounded=0;orthogonalLoop=1;jettySize=auto;html=1;exitX=1;exitY=0.5;exitDx=0;exitDy=0;labelBackgroundColor=default;strokeColor=default;fontFamily=Helvetica;fontSize=11;fontColor=default;endArrow=none;endFill=0;" edge="1" parent="1" source="kQ5PTKvCTX1AFU9Y6s-Q-49">
          <mxGeometry relative="1" as="geometry">
            <mxPoint x="200" y="530" as="targetPoint" />
          </mxGeometry>
        </mxCell>
        <mxCell id="kQ5PTKvCTX1AFU9Y6s-Q-49" value="nombre" style="ellipse;whiteSpace=wrap;html=1;" vertex="1" parent="1">
          <mxGeometry x="30" y="510" width="110" height="40" as="geometry" />
        </mxCell>
        <mxCell id="kQ5PTKvCTX1AFU9Y6s-Q-52" style="edgeStyle=orthogonalEdgeStyle;shape=connector;rounded=0;orthogonalLoop=1;jettySize=auto;html=1;exitX=0.5;exitY=1;exitDx=0;exitDy=0;entryX=0;entryY=0.25;entryDx=0;entryDy=0;labelBackgroundColor=default;strokeColor=default;fontFamily=Helvetica;fontSize=11;fontColor=default;endArrow=none;endFill=0;" edge="1" parent="1" source="kQ5PTKvCTX1AFU9Y6s-Q-51" target="kQ5PTKvCTX1AFU9Y6s-Q-47">
          <mxGeometry relative="1" as="geometry" />
        </mxCell>
        <mxCell id="kQ5PTKvCTX1AFU9Y6s-Q-51" value="titulo" style="ellipse;shape=doubleEllipse;margin=3;whiteSpace=wrap;html=1;align=center;fontFamily=Helvetica;fontSize=11;fontColor=default;" vertex="1" parent="1">
          <mxGeometry x="95" y="450" width="100" height="40" as="geometry" />
        </mxCell>
        <mxCell id="kQ5PTKvCTX1AFU9Y6s-Q-55" value="pertenece" style="rhombus;whiteSpace=wrap;html=1;fontFamily=Helvetica;fontSize=11;fontColor=default;" vertex="1" parent="1">
          <mxGeometry x="450" y="120" width="80" height="80" as="geometry" />
        </mxCell>
        <mxCell id="kQ5PTKvCTX1AFU9Y6s-Q-60" style="edgeStyle=orthogonalEdgeStyle;shape=connector;rounded=0;orthogonalLoop=1;jettySize=auto;html=1;exitX=0.5;exitY=0;exitDx=0;exitDy=0;entryX=0.5;entryY=1;entryDx=0;entryDy=0;labelBackgroundColor=default;strokeColor=default;fontFamily=Helvetica;fontSize=11;fontColor=default;endArrow=none;endFill=0;" edge="1" parent="1" source="kQ5PTKvCTX1AFU9Y6s-Q-58" target="kQ5PTKvCTX1AFU9Y6s-Q-12">
          <mxGeometry relative="1" as="geometry" />
        </mxCell>
        <mxCell id="kQ5PTKvCTX1AFU9Y6s-Q-58" value="desarrolla" style="rhombus;whiteSpace=wrap;html=1;fontFamily=Helvetica;fontSize=11;fontColor=default;" vertex="1" parent="1">
          <mxGeometry x="670" y="240" width="80" height="80" as="geometry" />
        </mxCell>
        <mxCell id="kQ5PTKvCTX1AFU9Y6s-Q-63" style="edgeStyle=orthogonalEdgeStyle;shape=connector;rounded=0;orthogonalLoop=1;jettySize=auto;html=1;exitX=0;exitY=0.5;exitDx=0;exitDy=0;labelBackgroundColor=default;strokeColor=default;fontFamily=Helvetica;fontSize=11;fontColor=default;endArrow=none;endFill=0;" edge="1" parent="1" source="kQ5PTKvCTX1AFU9Y6s-Q-61">
          <mxGeometry relative="1" as="geometry">
            <mxPoint x="320" y="520" as="targetPoint" />
            <Array as="points">
              <mxPoint x="380" y="433" />
              <mxPoint x="380" y="520" />
            </Array>
          </mxGeometry>
        </mxCell>
        <mxCell id="kQ5PTKvCTX1AFU9Y6s-Q-61" value="dirije" style="rhombus;whiteSpace=wrap;html=1;fontFamily=Helvetica;fontSize=11;fontColor=default;" vertex="1" parent="1">
          <mxGeometry x="435" y="393" width="80" height="80" as="geometry" />
        </mxCell>
        <mxCell id="kQ5PTKvCTX1AFU9Y6s-Q-66" style="edgeStyle=orthogonalEdgeStyle;shape=connector;rounded=0;orthogonalLoop=1;jettySize=auto;html=1;exitX=1;exitY=0.5;exitDx=0;exitDy=0;labelBackgroundColor=default;strokeColor=default;fontFamily=Helvetica;fontSize=11;fontColor=default;endArrow=none;endFill=0;entryX=0;entryY=0.75;entryDx=0;entryDy=0;" edge="1" parent="1" source="kQ5PTKvCTX1AFU9Y6s-Q-64" target="kQ5PTKvCTX1AFU9Y6s-Q-20">
          <mxGeometry relative="1" as="geometry">
            <mxPoint x="730" y="430" as="targetPoint" />
            <Array as="points">
              <mxPoint x="590" y="545" />
              <mxPoint x="590" y="415" />
            </Array>
          </mxGeometry>
        </mxCell>
        <mxCell id="kQ5PTKvCTX1AFU9Y6s-Q-70" style="edgeStyle=orthogonalEdgeStyle;shape=connector;rounded=0;orthogonalLoop=1;jettySize=auto;html=1;labelBackgroundColor=default;strokeColor=default;fontFamily=Helvetica;fontSize=11;fontColor=default;endArrow=none;endFill=0;exitX=0;exitY=1;exitDx=0;exitDy=0;entryX=0.5;entryY=0;entryDx=0;entryDy=0;" edge="1" parent="1" source="kQ5PTKvCTX1AFU9Y6s-Q-64" target="kQ5PTKvCTX1AFU9Y6s-Q-69">
          <mxGeometry relative="1" as="geometry">
            <mxPoint x="345" y="630" as="targetPoint" />
            <Array as="points">
              <mxPoint x="355" y="566" />
            </Array>
          </mxGeometry>
        </mxCell>
        <mxCell id="kQ5PTKvCTX1AFU9Y6s-Q-71" style="edgeStyle=orthogonalEdgeStyle;shape=connector;rounded=0;orthogonalLoop=1;jettySize=auto;html=1;labelBackgroundColor=default;strokeColor=default;fontFamily=Helvetica;fontSize=11;fontColor=default;endArrow=none;endFill=0;exitX=0.5;exitY=1;exitDx=0;exitDy=0;entryX=0.5;entryY=0;entryDx=0;entryDy=0;" edge="1" parent="1" source="kQ5PTKvCTX1AFU9Y6s-Q-64" target="kQ5PTKvCTX1AFU9Y6s-Q-68">
          <mxGeometry relative="1" as="geometry">
            <mxPoint x="630" y="710" as="sourcePoint" />
            <mxPoint x="405" y="710" as="targetPoint" />
          </mxGeometry>
        </mxCell>
        <mxCell id="kQ5PTKvCTX1AFU9Y6s-Q-72" style="edgeStyle=orthogonalEdgeStyle;shape=connector;rounded=0;orthogonalLoop=1;jettySize=auto;html=1;exitX=1;exitY=1;exitDx=0;exitDy=0;entryX=0.5;entryY=0;entryDx=0;entryDy=0;labelBackgroundColor=default;strokeColor=default;fontFamily=Helvetica;fontSize=11;fontColor=default;endArrow=none;endFill=0;" edge="1" parent="1" source="kQ5PTKvCTX1AFU9Y6s-Q-64" target="kQ5PTKvCTX1AFU9Y6s-Q-67">
          <mxGeometry relative="1" as="geometry">
            <Array as="points">
              <mxPoint x="535" y="566" />
            </Array>
          </mxGeometry>
        </mxCell>
        <mxCell id="kQ5PTKvCTX1AFU9Y6s-Q-64" value="evalua" style="rhombus;whiteSpace=wrap;html=1;fontFamily=Helvetica;fontSize=11;fontColor=default;" vertex="1" parent="1">
          <mxGeometry x="405" y="505" width="80" height="80" as="geometry" />
        </mxCell>
        <mxCell id="kQ5PTKvCTX1AFU9Y6s-Q-67" value="fecha" style="ellipse;whiteSpace=wrap;html=1;" vertex="1" parent="1">
          <mxGeometry x="480" y="590" width="110" height="40" as="geometry" />
        </mxCell>
        <mxCell id="kQ5PTKvCTX1AFU9Y6s-Q-68" value="observacion" style="ellipse;whiteSpace=wrap;html=1;" vertex="1" parent="1">
          <mxGeometry x="390" y="630" width="110" height="40" as="geometry" />
        </mxCell>
        <mxCell id="kQ5PTKvCTX1AFU9Y6s-Q-69" value="calificacion" style="ellipse;whiteSpace=wrap;html=1;" vertex="1" parent="1">
          <mxGeometry x="300" y="590" width="110" height="40" as="geometry" />
        </mxCell>
        <mxCell id="kQ5PTKvCTX1AFU9Y6s-Q-78" style="edgeStyle=orthogonalEdgeStyle;shape=connector;rounded=0;orthogonalLoop=1;jettySize=auto;html=1;exitX=1;exitY=0.5;exitDx=0;exitDy=0;entryX=0;entryY=0.75;entryDx=0;entryDy=0;labelBackgroundColor=default;strokeColor=default;fontFamily=Helvetica;fontSize=11;fontColor=default;endArrow=none;endFill=0;" edge="1" parent="1" source="kQ5PTKvCTX1AFU9Y6s-Q-74" target="kQ5PTKvCTX1AFU9Y6s-Q-12">
          <mxGeometry relative="1" as="geometry">
            <Array as="points">
              <mxPoint x="620" y="330" />
              <mxPoint x="620" y="175" />
            </Array>
          </mxGeometry>
        </mxCell>
        <mxCell id="kQ5PTKvCTX1AFU9Y6s-Q-81" style="edgeStyle=orthogonalEdgeStyle;shape=connector;rounded=0;orthogonalLoop=1;jettySize=auto;html=1;exitX=0;exitY=0;exitDx=0;exitDy=0;entryX=0.5;entryY=1;entryDx=0;entryDy=0;labelBackgroundColor=default;strokeColor=default;fontFamily=Helvetica;fontSize=11;fontColor=default;endArrow=none;endFill=0;" edge="1" parent="1" source="kQ5PTKvCTX1AFU9Y6s-Q-74" target="kQ5PTKvCTX1AFU9Y6s-Q-76">
          <mxGeometry relative="1" as="geometry">
            <Array as="points">
              <mxPoint x="365" y="310" />
            </Array>
          </mxGeometry>
        </mxCell>
        <mxCell id="kQ5PTKvCTX1AFU9Y6s-Q-74" value="asesora" style="rhombus;whiteSpace=wrap;html=1;fontFamily=Helvetica;fontSize=11;fontColor=default;" vertex="1" parent="1">
          <mxGeometry x="410" y="290" width="80" height="80" as="geometry" />
        </mxCell>
        <mxCell id="kQ5PTKvCTX1AFU9Y6s-Q-80" style="edgeStyle=orthogonalEdgeStyle;shape=connector;rounded=0;orthogonalLoop=1;jettySize=auto;html=1;exitX=0.5;exitY=1;exitDx=0;exitDy=0;entryX=1;entryY=0;entryDx=0;entryDy=0;labelBackgroundColor=default;strokeColor=default;fontFamily=Helvetica;fontSize=11;fontColor=default;endArrow=none;endFill=0;" edge="1" parent="1" source="kQ5PTKvCTX1AFU9Y6s-Q-75" target="kQ5PTKvCTX1AFU9Y6s-Q-74">
          <mxGeometry relative="1" as="geometry">
            <Array as="points">
              <mxPoint x="535" y="310" />
            </Array>
          </mxGeometry>
        </mxCell>
        <mxCell id="kQ5PTKvCTX1AFU9Y6s-Q-75" value="fecha" style="ellipse;whiteSpace=wrap;html=1;" vertex="1" parent="1">
          <mxGeometry x="480" y="240" width="110" height="40" as="geometry" />
        </mxCell>
        <mxCell id="kQ5PTKvCTX1AFU9Y6s-Q-76" value="tema" style="ellipse;whiteSpace=wrap;html=1;" vertex="1" parent="1">
          <mxGeometry x="310" y="240" width="110" height="40" as="geometry" />
        </mxCell>
        <mxCell id="kQ5PTKvCTX1AFU9Y6s-Q-82" value="1:m" style="text;html=1;align=center;verticalAlign=middle;resizable=0;points=[];autosize=1;strokeColor=none;fillColor=none;fontSize=11;fontFamily=Helvetica;fontColor=default;" vertex="1" parent="1">
          <mxGeometry x="470" y="90" width="40" height="30" as="geometry" />
        </mxCell>
        <mxCell id="kQ5PTKvCTX1AFU9Y6s-Q-83" value="m:1" style="text;html=1;align=center;verticalAlign=middle;resizable=0;points=[];autosize=1;strokeColor=none;fillColor=none;fontSize=11;fontFamily=Helvetica;fontColor=default;" vertex="1" parent="1">
          <mxGeometry x="750" y="265" width="40" height="30" as="geometry" />
        </mxCell>
        <mxCell id="kQ5PTKvCTX1AFU9Y6s-Q-84" value="1:m" style="text;html=1;align=center;verticalAlign=middle;resizable=0;points=[];autosize=1;strokeColor=none;fillColor=none;fontSize=11;fontFamily=Helvetica;fontColor=default;" vertex="1" parent="1">
          <mxGeometry x="455" y="370" width="40" height="30" as="geometry" />
        </mxCell>
        <mxCell id="kQ5PTKvCTX1AFU9Y6s-Q-85" value="1:m" style="text;html=1;align=center;verticalAlign=middle;resizable=0;points=[];autosize=1;strokeColor=none;fillColor=none;fontSize=11;fontFamily=Helvetica;fontColor=default;" vertex="1" parent="1">
          <mxGeometry x="425" y="480" width="40" height="30" as="geometry" />
        </mxCell>
      </root>
    </mxGraphModel>
  </diagram>
</mxfile>
